<svg width="172" height="50" viewBox="0 0 172 50" fill="none" xmlns="http://www.w3.org/2000/svg">
<path d="M10.3369 16.5543H17.2283" stroke="#484848" stroke-width="1.72285" stroke-linecap="round" stroke-linejoin="round"/>
<path d="M10.3369 20H17.2283" stroke="#484848" stroke-width="1.72285" stroke-linecap="round" stroke-linejoin="round"/>
<path d="M10.3369 23.4457H13.7826" stroke="#484848" stroke-width="1.72285" stroke-linecap="round" stroke-linejoin="round"/>
<path d="M16.8732 29.4757H5.16855C4.94009 29.4757 4.72098 29.3849 4.55943 29.2234C4.39789 29.0618 4.30713 28.8427 4.30713 28.6143V11.3858C4.30713 11.1573 4.39789 10.9382 4.55943 10.7767C4.72098 10.6151 4.94009 10.5244 5.16855 10.5244H22.397C22.6255 10.5244 22.8446 10.6151 23.0062 10.7767C23.1677 10.9382 23.2585 11.1573 23.2585 11.3858V23.0904C23.2589 23.2022 23.2372 23.3131 23.1947 23.4165C23.1522 23.52 23.0897 23.6141 23.0108 23.6934L17.4762 29.228C17.3969 29.3069 17.3028 29.3694 17.1993 29.4119C17.0958 29.4544 16.985 29.4761 16.8732 29.4757V29.4757Z" stroke="#484848" stroke-width="1.72285" stroke-linecap="round" stroke-linejoin="round"/>
<path d="M23.1831 23.4457H17.2285V29.4003" stroke="#484848" stroke-width="1.72285" stroke-linecap="round" stroke-linejoin="round"/>
<path d="M46.4261 30V11.434H44.1947V19.4164H36.5821V11.434H34.3634V30H36.5821V21.4183H44.1947V30H46.4261ZM52.8834 35.5723C53.504 35.5723 54.0523 35.4576 54.5283 35.2281C55.0044 34.9985 55.4209 34.7137 55.778 34.3737C56.135 34.0337 56.4368 33.6639 56.6833 33.2643C56.9383 32.8648 57.1466 32.4865 57.3081 32.1295L64.3086 16.203H61.6691L58.1115 25.1545L57.4612 26.7739L56.8491 25.1035L53.0619 16.203H50.4224L56.3645 29.3497L55.4209 31.1859C55.3359 31.3559 55.2169 31.5727 55.0639 31.8362C54.9194 32.0997 54.7451 32.3547 54.5411 32.6013C54.3286 32.8478 54.0863 33.0603 53.8143 33.2388C53.5507 33.4174 53.2575 33.5066 52.9344 33.5066C52.8154 33.5066 52.6496 33.4981 52.4371 33.4811C52.2331 33.4726 52.0248 33.4599 51.8123 33.4429L51.4298 35.3683C51.5828 35.4023 51.8081 35.4448 52.1056 35.4958C52.4031 35.5468 52.6624 35.5723 52.8834 35.5723ZM68.7512 35.3046H71.1102V28.6739C71.2802 28.8609 71.463 29.0351 71.6585 29.1967C71.854 29.3497 72.0623 29.4899 72.2833 29.6175C72.6489 29.8215 73.0569 29.9787 73.5074 30.0893C73.9665 30.1998 74.4595 30.255 74.9866 30.255C75.8537 30.255 76.623 30.0765 77.2946 29.7195C77.9747 29.3624 78.5442 28.8694 79.0033 28.2403C79.4623 27.6112 79.8109 26.8717 80.0489 26.0216C80.2869 25.163 80.4059 24.2406 80.4059 23.2545V22.9868C80.4059 21.9582 80.2869 21.0146 80.0489 20.156C79.8109 19.2889 79.4623 18.545 79.0033 17.9245C78.5442 17.3039 77.9747 16.8194 77.2946 16.4708C76.6145 16.1223 75.8324 15.948 74.9483 15.948C74.4468 15.948 73.975 16.0033 73.5329 16.1138C73.0994 16.2158 72.7041 16.3688 72.3471 16.5728C72.092 16.7088 71.854 16.8746 71.633 17.0701C71.412 17.2572 71.208 17.4697 71.0209 17.7077L70.9062 16.203H68.7512V35.3046ZM78.0469 22.9868V23.2545C78.0469 23.9261 77.9704 24.5679 77.8174 25.18C77.6729 25.7921 77.4476 26.3319 77.1416 26.7994C76.8355 27.267 76.4445 27.641 75.9685 27.9215C75.4924 28.1936 74.9271 28.3296 74.2725 28.3296C73.8645 28.3296 73.4904 28.2786 73.1504 28.1766C72.8189 28.0745 72.5171 27.9343 72.2451 27.7558C72.007 27.6027 71.7945 27.4157 71.6075 27.1947C71.4205 26.9737 71.2547 26.7357 71.1102 26.4806V19.8372C71.2717 19.5481 71.4587 19.2846 71.6713 19.0466C71.8838 18.8086 72.1261 18.6088 72.3981 18.4473C72.6446 18.2858 72.9209 18.1625 73.2269 18.0775C73.5414 17.9925 73.8815 17.95 74.247 17.95C74.9101 17.95 75.4797 18.086 75.9557 18.358C76.4318 18.6301 76.827 18.9956 77.1416 19.4546C77.4476 19.9222 77.6729 20.462 77.8174 21.0741C77.9704 21.6776 78.0469 22.3152 78.0469 22.9868ZM85.7538 30H88.1128V20.105C88.2744 19.8074 88.4614 19.5354 88.6739 19.2889C88.8949 19.0423 89.1329 18.8256 89.388 18.6386C89.7025 18.426 90.0468 18.2603 90.4208 18.1412C90.7949 18.0137 91.1987 17.95 91.6322 17.95C92.1338 17.95 92.5758 18.0095 92.9583 18.1285C93.3494 18.2475 93.6809 18.4388 93.953 18.7023C94.2165 18.9658 94.4163 19.3101 94.5523 19.7352C94.6883 20.1602 94.7563 20.6788 94.7563 21.2908V30H97.1153V21.2398C97.1153 20.3217 97.0005 19.5311 96.771 18.8681C96.55 18.1965 96.2312 17.6439 95.8146 17.2104C95.3981 16.7769 94.8923 16.4581 94.2972 16.2541C93.7107 16.05 93.0561 15.948 92.3335 15.948C91.798 15.9565 91.2879 16.0373 90.8034 16.1903C90.3273 16.3348 89.8853 16.5431 89.4772 16.8151C89.2052 16.9936 88.9459 17.2062 88.6994 17.4527C88.4614 17.6907 88.2403 17.9542 88.0363 18.2433L87.8706 16.203H85.7538V30ZM102.081 22.974V23.2545C102.081 24.2491 102.225 25.1715 102.514 26.0216C102.803 26.8717 103.22 27.6112 103.764 28.2403C104.299 28.8694 104.954 29.3624 105.728 29.7195C106.51 30.0765 107.389 30.255 108.367 30.255C109.336 30.255 110.208 30.0765 110.981 29.7195C111.755 29.3624 112.413 28.8694 112.958 28.2403C113.493 27.6112 113.905 26.8717 114.194 26.0216C114.483 25.1715 114.628 24.2491 114.628 23.2545V22.974C114.628 21.9794 114.483 21.0571 114.194 20.207C113.905 19.3484 113.493 18.6045 112.958 17.9755C112.413 17.3464 111.75 16.8534 110.968 16.4963C110.195 16.1308 109.319 15.948 108.342 15.948C107.372 15.948 106.501 16.1308 105.728 16.4963C104.954 16.8534 104.299 17.3464 103.764 17.9755C103.22 18.6045 102.803 19.3484 102.514 20.207C102.225 21.0571 102.081 21.9794 102.081 22.974ZM104.44 23.2545V22.974C104.44 22.3024 104.52 21.6606 104.682 21.0486C104.843 20.428 105.09 19.8839 105.422 19.4164C105.745 18.9488 106.148 18.579 106.633 18.307C107.117 18.0265 107.687 17.8862 108.342 17.8862C108.996 17.8862 109.566 18.0265 110.05 18.307C110.543 18.579 110.956 18.9488 111.287 19.4164C111.61 19.8839 111.852 20.428 112.014 21.0486C112.184 21.6606 112.269 22.3024 112.269 22.974V23.2545C112.269 23.9346 112.188 24.5849 112.027 25.2055C111.865 25.8176 111.623 26.3574 111.3 26.8249C110.968 27.2925 110.556 27.6623 110.063 27.9343C109.578 28.2063 109.013 28.3423 108.367 28.3423C107.713 28.3423 107.139 28.2063 106.646 27.9343C106.153 27.6623 105.745 27.2925 105.422 26.8249C105.09 26.3574 104.843 25.8176 104.682 25.2055C104.52 24.5849 104.44 23.9346 104.44 23.2545ZM125.319 12.8622H122.947V16.203H119.326V18.0265H122.947V25.5243C122.947 26.3744 123.057 27.1012 123.278 27.7048C123.508 28.2998 123.818 28.7844 124.209 29.1584C124.6 29.541 125.059 29.8215 125.586 30C126.122 30.17 126.696 30.255 127.308 30.255C127.673 30.255 128.039 30.238 128.405 30.204C128.779 30.17 129.131 30.119 129.463 30.051C129.794 29.9915 130.1 29.9192 130.381 29.8342C130.662 29.7407 130.9 29.6345 131.095 29.5154L130.764 27.845C130.619 27.879 130.432 27.9215 130.202 27.9725C129.981 28.015 129.743 28.0575 129.488 28.1C129.225 28.1426 128.957 28.1808 128.685 28.2148C128.413 28.2403 128.15 28.2531 127.894 28.2531C127.546 28.2531 127.214 28.2106 126.9 28.1256C126.594 28.0405 126.322 27.8918 126.084 27.6793C125.846 27.4752 125.659 27.199 125.523 26.8504C125.387 26.5019 125.319 26.0598 125.319 25.5243V18.0265H130.572V16.203H125.319V12.8622ZM142.819 30.255C144.162 30.255 145.288 29.9872 146.198 29.4517C147.116 28.9076 147.804 28.2871 148.263 27.59L146.823 26.4679C146.389 27.0289 145.845 27.4795 145.19 27.8195C144.536 28.1596 143.788 28.3296 142.946 28.3296C142.309 28.3296 141.726 28.2106 141.199 27.9725C140.672 27.7345 140.222 27.4072 139.848 26.9907C139.482 26.5996 139.193 26.1491 138.98 25.639C138.776 25.129 138.645 24.5382 138.585 23.8666V23.7773H148.442V22.719C148.442 21.7584 148.319 20.8658 148.072 20.0412C147.834 19.2166 147.469 18.4983 146.976 17.8862C146.483 17.2827 145.862 16.8109 145.114 16.4708C144.374 16.1223 143.507 15.948 142.513 15.948C141.722 15.948 140.948 16.1095 140.192 16.4326C139.444 16.7556 138.776 17.2189 138.19 17.8225C137.595 18.4345 137.119 19.1826 136.762 20.0667C136.405 20.9423 136.226 21.9369 136.226 23.0505V23.5861C136.226 24.5467 136.388 25.435 136.711 26.2511C137.034 27.0672 137.484 27.7728 138.062 28.3678C138.64 28.9629 139.333 29.4262 140.141 29.7577C140.957 30.0893 141.85 30.255 142.819 30.255ZM142.513 17.8862C143.116 17.8862 143.635 17.9967 144.068 18.2178C144.51 18.4388 144.876 18.7278 145.165 19.0848C145.454 19.4419 145.679 19.8669 145.841 20.36C146.002 20.8445 146.083 21.2993 146.083 21.7244V21.8391H138.662C138.755 21.2016 138.917 20.6405 139.146 20.156C139.384 19.6629 139.673 19.2464 140.013 18.9063C140.353 18.5748 140.736 18.324 141.161 18.154C141.586 17.9755 142.037 17.8862 142.513 17.8862ZM162.882 26.3404C162.882 26.5614 162.839 26.7697 162.754 26.9652C162.669 27.1607 162.546 27.3392 162.384 27.5007C162.121 27.7643 161.755 27.9725 161.288 28.1256C160.82 28.2701 160.272 28.3423 159.643 28.3423C159.243 28.3423 158.839 28.2998 158.431 28.2148C158.023 28.1298 157.654 27.9853 157.322 27.7813C156.982 27.5772 156.697 27.3095 156.468 26.9779C156.247 26.6464 156.119 26.2384 156.085 25.7538H153.726C153.726 26.3404 153.858 26.9057 154.121 27.4497C154.393 27.9938 154.785 28.4698 155.295 28.8779C155.796 29.2944 156.412 29.6302 157.144 29.8852C157.875 30.1318 158.708 30.255 159.643 30.255C160.459 30.255 161.211 30.1573 161.9 29.9617C162.588 29.7662 163.179 29.4899 163.672 29.1329C164.165 28.7759 164.548 28.3466 164.82 27.845C165.1 27.3435 165.241 26.7867 165.241 26.1746C165.241 25.605 165.117 25.1035 164.871 24.6699C164.633 24.2364 164.284 23.8539 163.825 23.5223C163.366 23.1993 162.801 22.923 162.129 22.6935C161.458 22.4555 160.697 22.2472 159.847 22.0687C159.201 21.9412 158.665 21.8094 158.24 21.6734C157.824 21.5374 157.492 21.3843 157.246 21.2143C156.99 21.0443 156.812 20.853 156.71 20.6405C156.608 20.428 156.557 20.1857 156.557 19.9137C156.557 19.6502 156.621 19.3951 156.748 19.1486C156.876 18.9021 157.067 18.6853 157.322 18.4983C157.569 18.3113 157.879 18.1625 158.253 18.052C158.635 17.9415 159.077 17.8862 159.579 17.8862C160.064 17.8862 160.497 17.9542 160.88 18.0902C161.271 18.2263 161.602 18.4048 161.874 18.6258C162.146 18.8468 162.359 19.1019 162.512 19.3909C162.665 19.6714 162.741 19.9604 162.741 20.258H165.1C165.1 19.6544 164.969 19.0933 164.705 18.5748C164.45 18.0477 164.084 17.5887 163.608 17.1977C163.132 16.8066 162.554 16.5006 161.874 16.2796C161.194 16.0585 160.429 15.948 159.579 15.948C158.788 15.948 158.062 16.0543 157.399 16.2668C156.744 16.4793 156.179 16.7684 155.703 17.1339C155.227 17.4994 154.857 17.9287 154.593 18.4218C154.33 18.9063 154.198 19.4291 154.198 19.9902C154.198 20.5598 154.325 21.0613 154.58 21.4949C154.836 21.9199 155.197 22.2897 155.664 22.6042C156.123 22.9273 156.676 23.2035 157.322 23.4331C157.977 23.6626 158.699 23.8581 159.49 24.0196C160.136 24.1471 160.676 24.2916 161.109 24.4532C161.543 24.6062 161.891 24.7762 162.155 24.9632C162.418 25.1502 162.605 25.3585 162.716 25.588C162.826 25.8091 162.882 26.0598 162.882 26.3404Z" fill="#484848"/>
<path d="M106.913 45.5H107.703V41.5088H109.476V40.901H107.703V40.578C107.703 40.3853 107.727 40.2167 107.776 40.0722C107.827 39.9277 107.9 39.8101 107.997 39.7194C108.087 39.6315 108.201 39.5664 108.337 39.5239C108.475 39.4785 108.634 39.4559 108.813 39.4559C108.988 39.4559 109.153 39.4714 109.306 39.5026C109.462 39.531 109.598 39.565 109.714 39.6046L109.807 38.9543C109.734 38.9345 109.661 38.9175 109.59 38.9033C109.52 38.8863 109.449 38.8707 109.378 38.8565C109.27 38.8367 109.161 38.8211 109.051 38.8098C108.94 38.7956 108.828 38.7885 108.715 38.7885C108.443 38.7885 108.196 38.8268 107.975 38.9033C107.754 38.9798 107.566 39.0932 107.41 39.2433C107.251 39.3935 107.128 39.5805 107.04 39.8044C106.955 40.0254 106.913 40.2833 106.913 40.578V40.901H105.646V41.5088H106.913V45.5ZM114.416 40.816C114.082 40.816 113.783 40.8897 113.52 41.037C113.259 41.1815 113.035 41.3799 112.848 41.6321L112.844 41.5173L112.81 40.901H112.062V45.5H112.852V42.5502C112.903 42.4085 112.967 42.281 113.044 42.1676C113.123 42.0515 113.215 41.9537 113.32 41.8744C113.436 41.7837 113.572 41.7157 113.728 41.6703C113.884 41.6222 114.058 41.5981 114.251 41.5981C114.401 41.5981 114.544 41.6066 114.68 41.6236C114.819 41.6378 114.965 41.6618 115.118 41.6958L115.224 40.9265C115.145 40.8925 115.026 40.8656 114.867 40.8458C114.711 40.8259 114.561 40.816 114.416 40.816ZM116.845 43.158V43.2515C116.845 43.583 116.893 43.8905 116.99 44.1739C117.086 44.4572 117.225 44.7037 117.406 44.9134C117.585 45.1231 117.803 45.2875 118.061 45.4065C118.321 45.5255 118.615 45.585 118.941 45.585C119.264 45.585 119.554 45.5255 119.812 45.4065C120.07 45.2875 120.289 45.1231 120.471 44.9134C120.649 44.7037 120.787 44.4572 120.883 44.1739C120.979 43.8905 121.028 43.583 121.028 43.2515V43.158C121.028 42.8265 120.979 42.519 120.883 42.2357C120.787 41.9495 120.649 41.7015 120.471 41.4918C120.289 41.2821 120.068 41.1178 119.808 40.9988C119.55 40.8769 119.258 40.816 118.932 40.816C118.609 40.816 118.319 40.8769 118.061 40.9988C117.803 41.1178 117.585 41.2821 117.406 41.4918C117.225 41.7015 117.086 41.9495 116.99 42.2357C116.893 42.519 116.845 42.8265 116.845 43.158ZM117.631 43.2515V43.158C117.631 42.9341 117.658 42.7202 117.712 42.5162C117.766 42.3093 117.848 42.128 117.959 41.9721C118.066 41.8163 118.201 41.693 118.363 41.6023C118.524 41.5088 118.714 41.4621 118.932 41.4621C119.15 41.4621 119.34 41.5088 119.502 41.6023C119.666 41.693 119.803 41.8163 119.914 41.9721C120.022 42.128 120.102 42.3093 120.156 42.5162C120.213 42.7202 120.241 42.9341 120.241 43.158V43.2515C120.241 43.4782 120.214 43.695 120.16 43.9018C120.107 44.1059 120.026 44.2858 119.918 44.4416C119.808 44.5975 119.67 44.7208 119.506 44.8114C119.344 44.9021 119.156 44.9474 118.941 44.9474C118.722 44.9474 118.531 44.9021 118.367 44.8114C118.202 44.7208 118.066 44.5975 117.959 44.4416C117.848 44.2858 117.766 44.1059 117.712 43.9018C117.658 43.695 117.631 43.4782 117.631 43.2515ZM123.091 40.901H122.385V45.5H123.133V41.8404C123.15 41.795 123.172 41.7525 123.197 41.7129C123.225 41.6732 123.258 41.6378 123.295 41.6066C123.343 41.5669 123.401 41.5372 123.469 41.5173C123.54 41.4947 123.622 41.4833 123.716 41.4833C123.801 41.4833 123.874 41.4947 123.937 41.5173C124.002 41.5372 124.056 41.5698 124.098 41.6151C124.143 41.6633 124.176 41.7242 124.196 41.7979C124.219 41.8715 124.23 41.9565 124.23 42.0529V45.5H124.978V42.0571C124.978 42.0401 124.978 42.026 124.978 42.0146C124.978 42.0005 124.978 41.9863 124.978 41.9721C124.986 41.9013 125.003 41.8375 125.029 41.7809C125.054 41.7214 125.09 41.6689 125.135 41.6236C125.181 41.5811 125.237 41.5471 125.305 41.5216C125.373 41.4961 125.454 41.4833 125.548 41.4833C125.635 41.4833 125.712 41.4947 125.777 41.5173C125.845 41.54 125.902 41.574 125.947 41.6193C125.99 41.6675 126.022 41.7284 126.045 41.8021C126.067 41.8758 126.079 41.9608 126.079 42.0571V45.5H126.827V42.0656C126.827 41.8446 126.801 41.6533 126.75 41.4918C126.699 41.3275 126.626 41.1943 126.529 41.0923C126.442 41.0016 126.334 40.9336 126.206 40.8883C126.079 40.8401 125.936 40.816 125.777 40.816C125.661 40.8188 125.553 40.8344 125.454 40.8628C125.358 40.8911 125.27 40.9294 125.19 40.9775C125.128 41.02 125.07 41.0696 125.016 41.1263C124.962 41.183 124.916 41.2439 124.876 41.3091C124.845 41.2382 124.807 41.1745 124.761 41.1178C124.719 41.0611 124.671 41.0129 124.617 40.9733C124.543 40.9223 124.457 40.884 124.357 40.8585C124.261 40.8302 124.152 40.816 124.03 40.816C123.815 40.8188 123.631 40.8656 123.478 40.9563C123.327 41.0469 123.206 41.173 123.112 41.3346L123.091 40.901Z" fill="#484848"/>
<path fill-rule="evenodd" clip-rule="evenodd" d="M138.71 43.6536V47.0069H140.883V38.4778H138.71V41.7609H135.462V38.4778H133.289V47.0069H135.462V43.6536H138.71ZM142.564 47.8013V49.5773H143.814C144.43 49.5773 144.928 49.5111 145.31 49.3786C145.699 49.254 146.003 49.0359 146.221 48.7244C146.447 48.4206 146.622 48.0039 146.747 47.4742L148.441 40.5575H146.431L145.391 45.2309H145.18L143.873 40.5575H141.746L143.627 46.8667H144.609H145.027L144.983 47.0653C144.944 47.2522 144.885 47.3963 144.807 47.4976C144.73 47.6066 144.628 47.6845 144.504 47.7312C144.379 47.778 144.227 47.8013 144.048 47.8013H142.564ZM149.261 49.3436V40.5575H150.943V42.1845C150.995 42.0219 151.057 41.869 151.13 41.7258C151.364 41.2818 151.679 40.9469 152.076 40.721C152.474 40.4873 152.929 40.3705 153.443 40.3705C153.887 40.3705 154.289 40.4523 154.647 40.6159C155.005 40.7717 155.313 40.9975 155.57 41.2935C155.827 41.5817 156.022 41.9244 156.154 42.3217C156.294 42.7189 156.364 43.1551 156.364 43.6303V43.9107C156.364 44.3858 156.302 44.8259 156.177 45.2309C156.053 45.6282 155.866 45.9787 155.617 46.2825C155.367 46.5785 155.06 46.8082 154.694 46.9718C154.335 47.1354 153.922 47.2172 153.455 47.2172C152.957 47.2172 152.517 47.1198 152.135 46.9251C151.839 46.7679 151.589 46.5522 151.387 46.2778V49.3436H149.261ZM157.533 40.5575V47.0069H159.659V43.2798C159.659 42.9682 159.749 42.7189 159.928 42.532C160.115 42.3373 160.36 42.2399 160.664 42.2399C160.968 42.2399 161.205 42.3373 161.377 42.532C161.556 42.7189 161.646 42.9604 161.646 43.2564V47.0069H163.772V43.3148C163.772 42.31 163.569 41.5661 163.164 41.0832C162.767 40.5925 162.202 40.3471 161.47 40.3471H161.377C160.894 40.3471 160.481 40.4562 160.138 40.6743C159.803 40.8924 159.55 41.2234 159.379 41.6674C159.311 41.8406 159.256 42.0321 159.215 42.2421V40.5575H157.533ZM166.894 46.9835C166.45 46.8121 166.073 46.5746 165.761 46.2708C165.457 45.967 165.224 45.6165 165.06 45.2192C164.904 44.822 164.826 44.3975 164.826 43.9457V43.6653C164.826 43.198 164.908 42.7618 165.072 42.3567C165.243 41.9517 165.485 41.5973 165.796 41.2935C166.108 40.9897 166.485 40.7522 166.929 40.5808C167.373 40.4095 167.868 40.3238 168.413 40.3238C168.966 40.3238 169.461 40.4095 169.897 40.5808C170.341 40.7522 170.719 40.9897 171.03 41.2935C171.342 41.5973 171.58 41.9517 171.743 42.3567C171.915 42.7618 172 43.198 172 43.6653V43.9457C172 44.3975 171.918 44.822 171.755 45.2192C171.599 45.6165 171.365 45.967 171.054 46.2708C170.75 46.5746 170.376 46.8121 169.932 46.9835C169.488 47.1549 168.982 47.2405 168.413 47.2405C167.845 47.2405 167.338 47.1549 166.894 46.9835ZM151.452 43.1236H154.592V43.1895C154.592 44.1053 153.904 44.8641 153.022 44.8641C152.156 44.8641 151.452 44.1058 151.452 43.1895V43.1236ZM169.932 43.1236H166.792V43.1895C166.792 44.1058 167.495 44.8641 168.362 44.8641C169.243 44.8641 169.932 44.1053 169.932 43.1895V43.1236Z" fill="#484848"/>
</svg>
